<svg width="189" height="276" viewBox="0 0 189 276" fill="none" xmlns="http://www.w3.org/2000/svg">
<path d="M75.388 189.605C50.161 181.635 7.258 159.593 2 125.405C2 125.405 23.758 104.36 38.123 63.4598C11.573 10.4728 107.034 1.7128 83.206 63.7318L102.56 63.8488C76.462 11.5478 168.068 0.0317688 149.465 64.1318C149.465 64.1318 172.639 110.495 187.115 126.522C180.522 162.55 132.501 183.725 109.315 189.809L109.106 224.419L141.128 274.906L41.785 275.235L75.179 224.214L75.388 189.605Z" fill="#AACDEF"/>
<path d="M83.8529 229.285L82.4189 226.399L79.6429 228.036L53.6349 243.372C53.1039 243.685 52.5559 243.649 52.0779 243.348C51.5869 243.039 51.1919 242.448 51.2059 241.626L51.8419 203.675C51.8559 202.854 52.2699 202.281 52.7669 201.992C53.2509 201.71 53.7999 201.691 54.3239 202.026L80.3349 218.626L82.8579 220.237L84.4739 217.717C86.4829 214.584 89.8989 212.578 93.7229 212.602C97.6049 212.625 101.042 214.734 102.998 217.97L104.569 220.57L107.149 218.967L133.643 202.504C134.171 202.176 134.72 202.202 135.201 202.489C135.694 202.784 136.101 203.362 136.105 204.183L136.283 242.14C136.287 242.961 135.885 243.547 135.391 243.851C134.909 244.146 134.361 244.176 133.833 243.856L107.708 228.023L104.913 226.329L103.464 229.259C101.606 233.017 97.8449 235.513 93.5849 235.487C89.3809 235.462 85.6919 232.986 83.8529 229.285Z" fill="#C3C0BB" stroke="#4A4D5B" stroke-width="6"/>
<path d="M143.371 48.5809C143.311 58.6199 135.511 66.4818 126.226 66.4258C116.941 66.3698 109.236 58.4149 109.297 48.3749C109.357 38.3359 117.157 30.4738 126.442 30.5298C135.727 30.5858 143.432 38.5409 143.371 48.5809Z" fill="white" stroke="black" stroke-width="6"/>
<path d="M76.8839 48.1789C76.8239 58.2189 69.0239 66.081 59.7389 66.025C50.4539 65.969 42.7489 58.013 42.8099 47.974C42.8709 37.934 50.6699 30.073 59.9549 30.129C69.2409 30.185 76.9449 38.1399 76.8839 48.1789Z" fill="white" stroke="black" stroke-width="6"/>
<path d="M111.135 88.8308C118.34 111.884 181.005 112.555 185.614 81.3858C190.614 47.5798 97.4291 44.9878 111.135 88.8308Z" fill="#3C5FCC" fill-opacity="0.8"/>
<path d="M77.7471 88.559C70.2631 111.522 7.59515 111.438 3.36215 80.215C-1.22885 46.352 91.9801 44.884 77.7471 88.559Z" fill="#FF0065" fill-opacity="0.8"/>
<path d="M79.0271 88.638L111.135 88.831M111.135 88.831C118.34 111.884 181.005 112.555 185.614 81.386C190.614 47.58 97.4292 44.988 111.135 88.831ZM109.855 88.753L77.7471 88.559M77.7471 88.559C70.2631 111.522 7.59515 111.438 3.36215 80.215C-1.22885 46.352 91.9801 44.884 77.7471 88.559Z" stroke="#4A4D5B" stroke-width="6"/>
<path d="M89.134 100.169L89.0601 112.465M99.608 100.233L99.5341 112.528" stroke="black" stroke-width="6"/>
<path d="M134.718 48.5289C134.689 53.4659 130.754 57.3449 126.053 57.3169C121.351 57.2879 117.464 53.3619 117.493 48.4249C117.523 43.4869 121.457 39.6079 126.159 39.6359C130.861 39.6649 134.748 43.5909 134.718 48.5289Z" fill="#0D1F2C" stroke="black" stroke-width="6"/>
<path d="M68.231 48.127C68.202 53.065 64.268 56.944 59.566 56.915C54.864 56.887 50.977 52.961 51.007 48.023C51.036 43.086 54.97 39.207 59.672 39.235C64.374 39.263 68.261 43.19 68.231 48.127Z" fill="#0D1F2C" stroke="black" stroke-width="6"/>
<path d="M103.777 13.1129C111.791 5.72387 132.119 -4.56714 149.316 13.3879" stroke="black" stroke-width="6"/>
<path d="M37.29 12.7129C45.304 5.32292 65.632 -4.96809 82.829 12.9869" stroke="black" stroke-width="6"/>
<path d="M28.209 127.202C49.377 153.743 105.471 191.061 160.5 128L28.209 127.202Z" fill="white" stroke="black" stroke-width="6"/>
</svg>
